<svg width="21" height="12" viewBox="0 0 21 12" fill="none" xmlns="http://www.w3.org/2000/svg">
<path d="M0.414773 11.7727V0.863636H2.9375V1.69886H1.36932V10.9375H2.9375V11.7727H0.414773ZM6.56925 10.1151C6.05504 10.1151 5.59482 9.98295 5.18857 9.71875C4.78232 9.45455 4.46129 9.07102 4.2255 8.56818C3.9897 8.06534 3.8718 7.45455 3.8718 6.7358C3.8718 6.00852 3.99112 5.39489 4.22976 4.89489C4.47124 4.39205 4.79652 4.01278 5.20561 3.7571C5.6147 3.49858 6.07067 3.36932 6.57351 3.36932C6.95703 3.36932 7.27237 3.43466 7.51953 3.56534C7.76669 3.69318 7.96271 3.84801 8.1076 4.02983C8.25249 4.20881 8.3647 4.37784 8.44425 4.53693H8.50817V1.27273H10.055V10H8.538V8.96875H8.44425C8.3647 9.12784 8.24965 9.29687 8.09908 9.47585C7.94851 9.65199 7.74964 9.80256 7.50249 9.92756C7.25533 10.0526 6.94425 10.1151 6.56925 10.1151ZM6.99965 8.84943C7.32635 8.84943 7.60476 8.76136 7.83487 8.58523C8.06499 8.40625 8.2397 8.15767 8.35902 7.83949C8.47834 7.52131 8.538 7.15057 8.538 6.72727C8.538 6.30398 8.47834 5.93608 8.35902 5.62358C8.24254 5.31108 8.06925 5.06818 7.83913 4.89489C7.61186 4.72159 7.33203 4.63494 6.99965 4.63494C6.6559 4.63494 6.36896 4.72443 6.13885 4.90341C5.90874 5.08239 5.73544 5.32955 5.61896 5.64489C5.50249 5.96023 5.44425 6.32102 5.44425 6.72727C5.44425 7.13636 5.50249 7.50142 5.61896 7.82244C5.73828 8.14062 5.913 8.39205 6.14311 8.5767C6.37607 8.75852 6.66158 8.84943 6.99965 8.84943ZM17.5455 3.45455L15.2145 10H13.5099L11.179 3.45455H12.8239L14.3281 8.31676H14.3963L15.9048 3.45455H17.5455ZM20.7521 0.863636V11.7727H18.2294V10.9375H19.7976V1.69886H18.2294V0.863636H20.7521Z" fill="white"/>
</svg>
